<mxfile host="app.diagrams.net" modified="2021-11-14T05:51:43.388Z" agent="5.0 (Windows NT 10.0; Win64; x64) AppleWebKit/537.36 (KHTML, like Gecko) Chrome/95.0.4638.69 Safari/537.36 Edg/95.0.1020.44" etag="qKdlcGJRR0nnIgrnqr8G" version="15.7.3" type="github">
  <diagram id="kgpKYQtTHZ0yAKxKKP6v" name="Page-1">
    <mxGraphModel dx="598" dy="376" grid="1" gridSize="10" guides="1" tooltips="1" connect="1" arrows="1" fold="1" page="1" pageScale="1" pageWidth="850" pageHeight="1100" math="0" shadow="0">
      <root>
        <mxCell id="0" />
        <mxCell id="1" parent="0" />
        <mxCell id="3nuBFxr9cyL0pnOWT2aG-1" value="e: EditorService" style="shape=umlLifeline;perimeter=lifelinePerimeter;container=1;collapsible=0;recursiveResize=0;rounded=0;shadow=0;strokeWidth=1;" parent="1" vertex="1">
          <mxGeometry x="120" y="80" width="100" height="490" as="geometry" />
        </mxCell>
        <mxCell id="3nuBFxr9cyL0pnOWT2aG-2" value="" style="points=[];perimeter=orthogonalPerimeter;rounded=0;shadow=0;strokeWidth=1;" parent="3nuBFxr9cyL0pnOWT2aG-1" vertex="1">
          <mxGeometry x="45" y="70" width="10" height="400" as="geometry" />
        </mxCell>
        <mxCell id="3nuBFxr9cyL0pnOWT2aG-3" value="onTyping" style="verticalAlign=bottom;startArrow=oval;endArrow=block;startSize=8;shadow=0;strokeWidth=1;" parent="3nuBFxr9cyL0pnOWT2aG-1" target="3nuBFxr9cyL0pnOWT2aG-2" edge="1">
          <mxGeometry relative="1" as="geometry">
            <mxPoint x="-15" y="70" as="sourcePoint" />
          </mxGeometry>
        </mxCell>
        <mxCell id="3nuBFxr9cyL0pnOWT2aG-5" value="ls: LanguageServer" style="shape=umlLifeline;perimeter=lifelinePerimeter;container=1;collapsible=0;recursiveResize=0;rounded=0;shadow=0;strokeWidth=1;" parent="1" vertex="1">
          <mxGeometry x="260" y="80" width="120" height="470" as="geometry" />
        </mxCell>
        <mxCell id="3nuBFxr9cyL0pnOWT2aG-6" value="" style="points=[];perimeter=orthogonalPerimeter;rounded=0;shadow=0;strokeWidth=1;" parent="3nuBFxr9cyL0pnOWT2aG-5" vertex="1">
          <mxGeometry x="55" y="80" width="10" height="380" as="geometry" />
        </mxCell>
        <mxCell id="ZDQ0MHAkUONQDT-dGgTB-1" value="(connected)" style="verticalAlign=bottom;endArrow=open;dashed=1;endSize=8;exitX=0;exitY=0.95;shadow=0;strokeWidth=1;" edge="1" parent="3nuBFxr9cyL0pnOWT2aG-5">
          <mxGeometry relative="1" as="geometry">
            <mxPoint x="-85" y="99.99999999999977" as="targetPoint" />
            <mxPoint x="55" y="99.99999999999977" as="sourcePoint" />
          </mxGeometry>
        </mxCell>
        <mxCell id="ZDQ0MHAkUONQDT-dGgTB-15" value="ls.close" style="verticalAlign=bottom;endArrow=block;entryX=0;entryY=0;shadow=0;strokeWidth=1;" edge="1" parent="3nuBFxr9cyL0pnOWT2aG-5">
          <mxGeometry relative="1" as="geometry">
            <mxPoint x="-85" y="450.0000000000008" as="sourcePoint" />
            <mxPoint x="55" y="450.0000000000008" as="targetPoint" />
          </mxGeometry>
        </mxCell>
        <mxCell id="ZDQ0MHAkUONQDT-dGgTB-16" value="" style="shape=umlDestroy;whiteSpace=wrap;html=1;strokeWidth=3;" vertex="1" parent="3nuBFxr9cyL0pnOWT2aG-5">
          <mxGeometry x="45" y="460" width="30" height="30" as="geometry" />
        </mxCell>
        <mxCell id="ZDQ0MHAkUONQDT-dGgTB-20" value="typing&amp;nbsp;" style="shape=umlFrame;whiteSpace=wrap;html=1;" vertex="1" parent="3nuBFxr9cyL0pnOWT2aG-5">
          <mxGeometry x="-110" y="110" width="190" height="90" as="geometry" />
        </mxCell>
        <mxCell id="3nuBFxr9cyL0pnOWT2aG-7" value="ls.response" style="verticalAlign=bottom;endArrow=open;endSize=8;exitX=0;exitY=0.95;shadow=0;strokeWidth=1;" parent="1" edge="1">
          <mxGeometry relative="1" as="geometry">
            <mxPoint x="175" y="245.99999999999977" as="targetPoint" />
            <mxPoint x="315" y="245.99999999999977" as="sourcePoint" />
          </mxGeometry>
        </mxCell>
        <mxCell id="3nuBFxr9cyL0pnOWT2aG-8" value="ls.connect" style="verticalAlign=bottom;endArrow=block;entryX=0;entryY=0;shadow=0;strokeWidth=1;" parent="1" source="3nuBFxr9cyL0pnOWT2aG-2" target="3nuBFxr9cyL0pnOWT2aG-6" edge="1">
          <mxGeometry relative="1" as="geometry">
            <mxPoint x="275" y="160" as="sourcePoint" />
          </mxGeometry>
        </mxCell>
        <mxCell id="3nuBFxr9cyL0pnOWT2aG-10" value="ls.request" style="verticalAlign=bottom;endArrow=open;endSize=8;shadow=0;strokeWidth=1;exitX=1.148;exitY=0.469;exitDx=0;exitDy=0;exitPerimeter=0;" parent="1" edge="1">
          <mxGeometry relative="1" as="geometry">
            <mxPoint x="315" y="226.9999999999999" as="targetPoint" />
            <mxPoint x="176.4799999999999" y="227.11" as="sourcePoint" />
          </mxGeometry>
        </mxCell>
        <mxCell id="ZDQ0MHAkUONQDT-dGgTB-4" value="c: CompileService" style="shape=umlLifeline;perimeter=lifelinePerimeter;container=1;collapsible=0;recursiveResize=0;rounded=0;shadow=0;strokeWidth=1;" vertex="1" parent="1">
          <mxGeometry x="410" y="80" width="100" height="490" as="geometry" />
        </mxCell>
        <mxCell id="ZDQ0MHAkUONQDT-dGgTB-5" value="" style="points=[];perimeter=orthogonalPerimeter;rounded=0;shadow=0;strokeWidth=1;" vertex="1" parent="ZDQ0MHAkUONQDT-dGgTB-4">
          <mxGeometry x="45" y="70" width="10" height="400" as="geometry" />
        </mxCell>
        <mxCell id="ZDQ0MHAkUONQDT-dGgTB-6" value="compile.req" style="verticalAlign=bottom;startArrow=none;endArrow=block;startSize=8;shadow=0;strokeWidth=1;startFill=0;" edge="1" parent="ZDQ0MHAkUONQDT-dGgTB-4">
          <mxGeometry relative="1" as="geometry">
            <mxPoint x="-234" y="233" as="sourcePoint" />
            <mxPoint x="45" y="233" as="targetPoint" />
          </mxGeometry>
        </mxCell>
        <mxCell id="ZDQ0MHAkUONQDT-dGgTB-7" value="ex: Executor" style="shape=umlLifeline;perimeter=lifelinePerimeter;container=1;collapsible=0;recursiveResize=0;rounded=0;shadow=0;strokeWidth=1;" vertex="1" parent="1">
          <mxGeometry x="550" y="80" width="110" height="420" as="geometry" />
        </mxCell>
        <mxCell id="ZDQ0MHAkUONQDT-dGgTB-8" value="" style="points=[];perimeter=orthogonalPerimeter;rounded=0;shadow=0;strokeWidth=1;" vertex="1" parent="ZDQ0MHAkUONQDT-dGgTB-7">
          <mxGeometry x="50" y="70" width="10" height="330" as="geometry" />
        </mxCell>
        <mxCell id="ZDQ0MHAkUONQDT-dGgTB-17" value="" style="shape=umlDestroy;whiteSpace=wrap;html=1;strokeWidth=3;" vertex="1" parent="ZDQ0MHAkUONQDT-dGgTB-7">
          <mxGeometry x="40" y="410" width="30" height="30" as="geometry" />
        </mxCell>
        <mxCell id="ZDQ0MHAkUONQDT-dGgTB-19" value="typing &amp;amp; running" style="shape=umlFrame;whiteSpace=wrap;html=1;" vertex="1" parent="ZDQ0MHAkUONQDT-dGgTB-7">
          <mxGeometry x="-110" y="280" width="190" height="90" as="geometry" />
        </mxCell>
        <mxCell id="ZDQ0MHAkUONQDT-dGgTB-10" value="execute" style="verticalAlign=bottom;endArrow=block;shadow=0;strokeWidth=1;" edge="1" parent="1">
          <mxGeometry relative="1" as="geometry">
            <mxPoint x="465" y="334.0000000000008" as="sourcePoint" />
            <mxPoint x="600" y="334" as="targetPoint" />
          </mxGeometry>
        </mxCell>
        <mxCell id="ZDQ0MHAkUONQDT-dGgTB-11" value="compile.res" style="verticalAlign=bottom;endArrow=open;dashed=1;endSize=8;shadow=0;strokeWidth=1;entryX=1.148;entryY=0.404;entryDx=0;entryDy=0;entryPerimeter=0;exitX=0.079;exitY=0.404;exitDx=0;exitDy=0;exitPerimeter=0;" edge="1" parent="1">
          <mxGeometry relative="1" as="geometry">
            <mxPoint x="176.4799999999999" y="355.6" as="targetPoint" />
            <mxPoint x="455.78999999999996" y="355.6" as="sourcePoint" />
          </mxGeometry>
        </mxCell>
        <mxCell id="ZDQ0MHAkUONQDT-dGgTB-12" value="ex.tout" style="verticalAlign=bottom;endArrow=open;endSize=8;exitX=0;exitY=0.95;shadow=0;strokeWidth=1;entryX=1.183;entryY=0.726;entryDx=0;entryDy=0;entryPerimeter=0;" edge="1" parent="1">
          <mxGeometry relative="1" as="geometry">
            <mxPoint x="466.8299999999999" y="425.4" as="targetPoint" />
            <mxPoint x="600" y="424.9999999999998" as="sourcePoint" />
          </mxGeometry>
        </mxCell>
        <mxCell id="ZDQ0MHAkUONQDT-dGgTB-13" value="ex.tin" style="verticalAlign=bottom;endArrow=open;endSize=8;shadow=0;strokeWidth=1;exitX=0.976;exitY=0.671;exitDx=0;exitDy=0;exitPerimeter=0;" edge="1" parent="1">
          <mxGeometry relative="1" as="geometry">
            <mxPoint x="600" y="403" as="targetPoint" />
            <mxPoint x="464.76" y="403.4" as="sourcePoint" />
          </mxGeometry>
        </mxCell>
        <mxCell id="ZDQ0MHAkUONQDT-dGgTB-14" value="ex.shutdown" style="verticalAlign=bottom;startArrow=none;endArrow=block;startSize=8;shadow=0;strokeWidth=1;startFill=0;exitX=0.941;exitY=0.804;exitDx=0;exitDy=0;exitPerimeter=0;" edge="1" parent="1" source="3nuBFxr9cyL0pnOWT2aG-2">
          <mxGeometry relative="1" as="geometry">
            <mxPoint x="180" y="470" as="sourcePoint" />
            <mxPoint x="600" y="472" as="targetPoint" />
          </mxGeometry>
        </mxCell>
      </root>
    </mxGraphModel>
  </diagram>
</mxfile>
